# xmcd
#
# Track frame offsets:
#	150
#	14342
#	26497
#	40748
#	54166
#	67602
#	84442
#	98315
#	109558
#	123517
#	137536
#	150475
#	163462
#	175096
#	188945
#	202285
#	214975
#	230217
#	244246
#	257327
#
# Disc length: 3600 seconds
#
# Revision: 1
# Processed by: cddbd v1.5.2PL0 Copyright (c) Steve Scherf et al.
# Submitted via: audiograbber 1.83.01
#
DISCID=060e0e14
DTITLE=Blues - 100 Blues Tunes 3
DYEAR=1965
DGENRE=Blues
TTITLE0=John Lee Hooker - Boogie Chillen
TTITLE1=Big Maybelle - abbin' Blues
TTITLE2=Leadbelly - Black Snake
TTITLE3=Grant 'mr. Blues' Jones - They call me Mr. Blues
TTITLE4=Big Joe Turner - Goin' to Chigago blues
TTITLE5=Lizzie Miles - Memphis blues
TTITLE6=Ray Charles - Late in the evening blues
TTITLE7=Wynonie Harris - Big city blues
TTITLE8=Bessie Smith - Black mountain blues
TTITLE9=Eddy Boyd - Cool kind treatment
TTITLE10=Jimmy Nelson - Meet me with your black dress
TTITLE11=Ruth Brown - Happiness is a thing called joe
TTITLE12=Little Ceasar - Here is a letter
TTITLE13=Blind Willie Dunn - Church street sobbin' blues
TTITLE14=Sarah Vaughan - Sometimes i feel like a motherless child
TTITLE15=Charley Patton - Stone pony blues
TTITLE16=Pee Wee Crayton - Louella brown
TTITLE17=Handy Jackson - Got my application, baby
TTITLE18=RB Thibadeaux - New kind of loving
TTITLE19=Elmore Nixon - You see me smiling
EXTD=
EXTT0=
EXTT1=
EXTT2=
EXTT3=
EXTT4=
EXTT5=
EXTT6=
EXTT7=
EXTT8=
EXTT9=
EXTT10=
EXTT11=
EXTT12=
EXTT13=
EXTT14=
EXTT15=
EXTT16=
EXTT17=
EXTT18=
EXTT19=
PLAYORDER=
